<?xml version="1.0" standalone="no"?>
<!DOCTYPE svg PUBLIC "-//W3C//DTD SVG 20010904//EN"
 "http://www.w3.org/TR/2001/REC-SVG-20010904/DTD/svg10.dtd">
<svg version="1.0" xmlns="http://www.w3.org/2000/svg"
 width="328.000000pt" height="374.000000pt" viewBox="0 0 328.000000 374.000000"
 preserveAspectRatio="xMidYMid meet">

<g transform="translate(0.000000,374.000000) scale(0.100000,-0.100000)"
fill="#000000" stroke="none">
<path d="M760 3083 c-30 -2 -59 -8 -65 -12 -5 -5 -24 -12 -42 -15 -61 -14
-161 -75 -213 -132 -40 -44 -100 -128 -100 -141 0 -4 -7 -21 -16 -38 -8 -16
-18 -52 -21 -78 -3 -26 -10 -50 -14 -53 -12 -7 -12 -1491 0 -1498 4 -3 11 -29
14 -57 4 -28 10 -56 15 -63 5 -6 13 -22 17 -36 26 -85 174 -237 249 -256 14
-3 26 -10 26 -14 0 -4 17 -11 38 -15 20 -4 43 -12 51 -18 21 -18 783 -17 789
1 2 6 13 12 25 12 33 0 157 65 209 110 45 39 108 121 108 141 0 5 4 9 9 9 4 0
14 21 21 48 7 26 18 53 24 61 7 9 11 74 11 177 0 163 0 164 -26 190 -34 34
-102 43 -150 20 -54 -25 -67 -63 -72 -206 -3 -94 -9 -133 -22 -159 -26 -49
-106 -129 -138 -136 -15 -4 -30 -11 -33 -16 -7 -12 -712 -10 -719 2 -4 5 -14
9 -23 9 -46 0 -146 107 -158 169 -4 17 -10 31 -15 31 -5 0 -9 326 -9 745 0
419 4 745 9 745 5 0 11 14 15 31 12 62 112 169 158 169 9 0 19 4 23 9 7 12
712 14 719 2 3 -5 18 -12 33 -16 32 -7 112 -87 138 -136 13 -26 19 -65 22
-159 5 -143 18 -181 72 -206 48 -23 116 -14 150 20 26 26 26 27 26 190 0 107
-4 168 -11 177 -7 8 -15 29 -19 47 -3 17 -11 32 -15 32 -5 0 -7 7 -4 15 4 8 1
15 -5 15 -6 0 -11 4 -11 9 0 18 -58 96 -100 135 -48 44 -182 116 -216 116 -12
0 -24 6 -26 12 -4 10 -85 13 -339 14 -184 1 -359 -1 -389 -3z"/>
<path d="M2259 2519 c-30 -15 -38 -26 -48 -64 -21 -83 -9 -102 169 -280 88
-88 160 -165 160 -172 0 -10 -160 -13 -782 -13 -431 -1 -803 -5 -828 -9 -64
-13 -90 -47 -90 -116 0 -69 26 -103 90 -116 25 -4 397 -8 828 -9 622 0 782 -3
782 -13 0 -7 -72 -84 -160 -172 -178 -178 -190 -197 -169 -280 10 -39 18 -49
52 -65 53 -26 79 -25 125 4 55 36 577 565 596 605 9 19 16 39 16 46 0 7 -7 27
-16 46 -19 40 -541 569 -596 605 -44 28 -79 29 -129 3z"/>
</g>
</svg>
