<svg id="Icon_Deine_Dokumente" data-name="Icon Deine Dokumente"
    xmlns="http://www.w3.org/2000/svg" width="67.5" height="90" viewBox="0 0 67.5 90">
    <path id="Pfad_218562" data-name="Pfad 218562" d="M112.1,26.723,87.26,1.885A5.61,5.61,0,0,0,83.3.25H57.5A11.25,11.25,0,0,0,46.25,11.5V79A11.251,11.251,0,0,0,57.5,90.25h45A11.25,11.25,0,0,0,113.75,79V30.713A5.656,5.656,0,0,0,112.1,26.723ZM85.625,4.228l24.152,24.147H89.844a4.231,4.231,0,0,1-4.219-4.219ZM110.938,79a8.446,8.446,0,0,1-8.437,8.438h-45A8.446,8.446,0,0,1,49.063,79V11.5A8.446,8.446,0,0,1,57.5,3.063H82.813V24.156a7.038,7.038,0,0,0,7.031,7.031h21.094ZM81.406,41.031a1.406,1.406,0,0,0-2.812,0V55.094H64.531a1.406,1.406,0,0,0,0,2.813H78.594V71.969a1.406,1.406,0,0,0,2.813,0V57.906H95.469a1.406,1.406,0,0,0,0-2.812H81.406Z" transform="translate(-46.25 -0.25)" fill="#c8b600"/>
</svg>
