<svg xmlns="http://www.w3.org/2000/svg" width="78.75" height="89.842" viewBox="0 0 78.75 89.842">
    <path id="Pfad_218576" data-name="Pfad 218576" d="M57.5,22.75A22.5,22.5,0,1,1,80,45.25,22.5,22.5,0,0,1,57.5,22.75Zm42.188,0A19.688,19.688,0,1,0,80,42.438,19.682,19.682,0,0,0,99.688,22.75Zm19.688,61.717a5.521,5.521,0,0,1-5.625,5.625H46.25a5.524,5.524,0,0,1-5.625-5.625V83.061a29.492,29.492,0,0,1,24.891-29L80,73.375,94.484,54.057a29.487,29.487,0,0,1,24.891,29ZM64.3,57.133A26.7,26.7,0,0,0,43.438,83.061v1.406a2.72,2.72,0,0,0,2.813,2.813h67.5a2.724,2.724,0,0,0,2.813-2.812V83.061A26.706,26.706,0,0,0,95.7,57.133L82.25,75.063A2.831,2.831,0,0,1,80,76.188a2.619,2.619,0,0,1-2.25-1.125Z" transform="translate(-40.625 -0.25)" fill="#c8b600"/>
</svg>
